
<svg xmlns="http://www.w3.org/2000/svg" version="1.1" xmlns:xlink="http://www.w3.org/1999/xlink" xmlns:svgjs="http://svgjs.com/svgjs" width="1000" height="1000" preserveAspectRatio="none" viewBox="0 0 1000 1000"><g mask="url(&quot;#SvgjsMask1311&quot;)" fill="none"><rect width="1000" height="1000" x="0" y="0" fill="rgba(24, 24, 24, 1)"></rect><use xlink:href="#SvgjsG1314" transform="translate(0, 0)" fill="rgba(0, 0, 0, 1)"></use><use xlink:href="#SvgjsG1314" transform="translate(0, 735)" fill="rgba(0, 0, 0, 1)"></use><use xlink:href="#SvgjsG1314" transform="translate(735, 0)" fill="rgba(0, 0, 0, 1)"></use><use xlink:href="#SvgjsG1314" transform="translate(735, 735)" fill="rgba(0, 0, 0, 1)"></use></g><defs><mask id="SvgjsMask1311"><rect width="1000" height="1000" fill="#ffffff"></rect></mask><g id="SvgjsG1312"><path d="M15.769 13.134v-0.004s-3.022-3.019-3.024-3.02a0.605 0.605 0 0 0-0.858 0.002L10.496 11.509c-0.541 0.541-1.238 0.061-2.577-1.031-0.886-0.722-1.905-1.693-2.788-2.788-0.62-0.768-1.168-1.575-0.602-2.141 0.001-0.001 1.397-1.393 1.398-1.395l0.001-0.003c0.251-0.25 0.226-0.634-0.003-0.862v-0.004L2.813 0.177c-0.24-0.239-0.623-0.234-0.858 0.002L0.553 1.58C-0.024 2.303-1.307 5.747 4.194 11.385c5.795 5.94 9.534 4.669 10.177 3.999 0 0 1.4-1.383 1.4-1.384l0.001-0.003c0.251-0.251 0.225-0.635-0.002-0.864z"></path></g><g id="SvgjsG1313"><path d="M8.312 8.242l0 0.521c0.492-0.069 0.443-0.509 0-0.52v-0.001z m-0.51-0.627V7.155c-0.365 0.064-0.358 0.454 0 0.46z"></path><path d="M8.055 5.946c-1.128 0-2.044 0.915-2.044 2.043 0 1.129 0.915 2.044 2.045 2.044 1.129 0 2.043-0.915 2.043-2.044 0-1.128-0.915-2.043-2.043-2.043l-0.001 0z m0.251 3.336v0.364h-0.507v-0.37c-0.29-0.043-0.822-0.323-0.855-0.924h0.534c0.034 0.154 0.078 0.34 0.321 0.409l-0.001-0.605c-0.334-0.048-0.814-0.194-0.814-0.73 0-0.602 0.666-0.789 0.813-0.789v-0.364h0.502v0.364c0.338 0.02 0.83 0.302 0.829 0.84h-0.528c-0.014-0.16-0.137-0.317-0.296-0.327v0.554c0.403 0.041 0.877 0.195 0.877 0.738 0 0.473-0.475 0.818-0.877 0.84h0.002z"></path><path d="M0 11.93h16V4H0v7.93z m1.508-1.508V5.508h12.984V10.422H1.508z"></path></g><g id="SvgjsG1314"><use xlink:href="#SvgjsG1312" transform="translate(0, 0) scale(2.1)" fill="rgba(0, 0, 0, 1)"></use><use xlink:href="#SvgjsG1313" transform="translate(0, 73.5) scale(2.1)" fill="rgba(0, 0, 0, 1)"></use><use xlink:href="#SvgjsG1312" transform="translate(0, 147) scale(2.1)" fill="rgba(0, 0, 0, 1)"></use><use xlink:href="#SvgjsG1313" transform="translate(0, 220.5) scale(2.1)" fill="rgba(0, 0, 0, 1)"></use><use xlink:href="#SvgjsG1312" transform="translate(0, 294) scale(2.1)" fill="rgba(0, 0, 0, 1)"></use><use xlink:href="#SvgjsG1313" transform="translate(0, 367.5) scale(2.1)" fill="rgba(0, 0, 0, 1)"></use><use xlink:href="#SvgjsG1312" transform="translate(0, 441) scale(2.1)" fill="rgba(0, 0, 0, 1)"></use><use xlink:href="#SvgjsG1313" transform="translate(0, 514.5) scale(2.1)" fill="rgba(0, 0, 0, 1)"></use><use xlink:href="#SvgjsG1312" transform="translate(0, 588) scale(2.1)" fill="rgba(0, 0, 0, 1)"></use><use xlink:href="#SvgjsG1313" transform="translate(0, 661.5) scale(2.1)" fill="rgba(0, 0, 0, 1)"></use><use xlink:href="#SvgjsG1313" transform="translate(73.5, 0) scale(2.1)" fill="rgba(0, 0, 0, 1)"></use><use xlink:href="#SvgjsG1312" transform="translate(73.5, 73.5) scale(2.1)" fill="rgba(0, 0, 0, 1)"></use><use xlink:href="#SvgjsG1313" transform="translate(73.5, 147) scale(2.1)" fill="rgba(0, 0, 0, 1)"></use><use xlink:href="#SvgjsG1312" transform="translate(73.5, 220.5) scale(2.1)" fill="rgba(0, 0, 0, 1)"></use><use xlink:href="#SvgjsG1313" transform="translate(73.5, 294) scale(2.1)" fill="rgba(0, 0, 0, 1)"></use><use xlink:href="#SvgjsG1312" transform="translate(73.5, 367.5) scale(2.1)" fill="rgba(0, 0, 0, 1)"></use><use xlink:href="#SvgjsG1313" transform="translate(73.5, 441) scale(2.1)" fill="rgba(0, 0, 0, 1)"></use><use xlink:href="#SvgjsG1312" transform="translate(73.5, 514.5) scale(2.1)" fill="rgba(0, 0, 0, 1)"></use><use xlink:href="#SvgjsG1313" transform="translate(73.5, 588) scale(2.1)" fill="rgba(0, 0, 0, 1)"></use><use xlink:href="#SvgjsG1312" transform="translate(73.5, 661.5) scale(2.1)" fill="rgba(0, 0, 0, 1)"></use><use xlink:href="#SvgjsG1312" transform="translate(147, 0) scale(2.1)" fill="rgba(0, 0, 0, 1)"></use><use xlink:href="#SvgjsG1313" transform="translate(147, 73.5) scale(2.1)" fill="rgba(0, 0, 0, 1)"></use><use xlink:href="#SvgjsG1312" transform="translate(147, 147) scale(2.1)" fill="rgba(0, 0, 0, 1)"></use><use xlink:href="#SvgjsG1313" transform="translate(147, 220.5) scale(2.1)" fill="rgba(0, 0, 0, 1)"></use><use xlink:href="#SvgjsG1312" transform="translate(147, 294) scale(2.1)" fill="rgba(0, 0, 0, 1)"></use><use xlink:href="#SvgjsG1313" transform="translate(147, 367.5) scale(2.1)" fill="rgba(0, 0, 0, 1)"></use><use xlink:href="#SvgjsG1312" transform="translate(147, 441) scale(2.1)" fill="rgba(0, 0, 0, 1)"></use><use xlink:href="#SvgjsG1313" transform="translate(147, 514.5) scale(2.1)" fill="rgba(0, 0, 0, 1)"></use><use xlink:href="#SvgjsG1312" transform="translate(147, 588) scale(2.1)" fill="rgba(0, 0, 0, 1)"></use><use xlink:href="#SvgjsG1313" transform="translate(147, 661.5) scale(2.1)" fill="rgba(0, 0, 0, 1)"></use><use xlink:href="#SvgjsG1313" transform="translate(220.5, 0) scale(2.1)" fill="rgba(0, 0, 0, 1)"></use><use xlink:href="#SvgjsG1312" transform="translate(220.5, 73.5) scale(2.1)" fill="rgba(0, 0, 0, 1)"></use><use xlink:href="#SvgjsG1313" transform="translate(220.5, 147) scale(2.1)" fill="rgba(0, 0, 0, 1)"></use><use xlink:href="#SvgjsG1312" transform="translate(220.5, 220.5) scale(2.1)" fill="rgba(0, 0, 0, 1)"></use><use xlink:href="#SvgjsG1313" transform="translate(220.5, 294) scale(2.1)" fill="rgba(0, 0, 0, 1)"></use><use xlink:href="#SvgjsG1312" transform="translate(220.5, 367.5) scale(2.1)" fill="rgba(0, 0, 0, 1)"></use><use xlink:href="#SvgjsG1313" transform="translate(220.5, 441) scale(2.1)" fill="rgba(0, 0, 0, 1)"></use><use xlink:href="#SvgjsG1312" transform="translate(220.5, 514.5) scale(2.1)" fill="rgba(0, 0, 0, 1)"></use><use xlink:href="#SvgjsG1313" transform="translate(220.5, 588) scale(2.1)" fill="rgba(0, 0, 0, 1)"></use><use xlink:href="#SvgjsG1312" transform="translate(220.5, 661.5) scale(2.1)" fill="rgba(0, 0, 0, 1)"></use><use xlink:href="#SvgjsG1312" transform="translate(294, 0) scale(2.1)" fill="rgba(0, 0, 0, 1)"></use><use xlink:href="#SvgjsG1313" transform="translate(294, 73.5) scale(2.1)" fill="rgba(0, 0, 0, 1)"></use><use xlink:href="#SvgjsG1312" transform="translate(294, 147) scale(2.1)" fill="rgba(0, 0, 0, 1)"></use><use xlink:href="#SvgjsG1313" transform="translate(294, 220.5) scale(2.1)" fill="rgba(0, 0, 0, 1)"></use><use xlink:href="#SvgjsG1312" transform="translate(294, 294) scale(2.1)" fill="rgba(0, 0, 0, 1)"></use><use xlink:href="#SvgjsG1313" transform="translate(294, 367.5) scale(2.1)" fill="rgba(0, 0, 0, 1)"></use><use xlink:href="#SvgjsG1312" transform="translate(294, 441) scale(2.1)" fill="rgba(0, 0, 0, 1)"></use><use xlink:href="#SvgjsG1313" transform="translate(294, 514.5) scale(2.1)" fill="rgba(0, 0, 0, 1)"></use><use xlink:href="#SvgjsG1312" transform="translate(294, 588) scale(2.1)" fill="rgba(0, 0, 0, 1)"></use><use xlink:href="#SvgjsG1313" transform="translate(294, 661.5) scale(2.1)" fill="rgba(0, 0, 0, 1)"></use><use xlink:href="#SvgjsG1313" transform="translate(367.5, 0) scale(2.1)" fill="rgba(0, 0, 0, 1)"></use><use xlink:href="#SvgjsG1312" transform="translate(367.5, 73.5) scale(2.1)" fill="rgba(0, 0, 0, 1)"></use><use xlink:href="#SvgjsG1313" transform="translate(367.5, 147) scale(2.1)" fill="rgba(0, 0, 0, 1)"></use><use xlink:href="#SvgjsG1312" transform="translate(367.5, 220.5) scale(2.1)" fill="rgba(0, 0, 0, 1)"></use><use xlink:href="#SvgjsG1313" transform="translate(367.5, 294) scale(2.1)" fill="rgba(0, 0, 0, 1)"></use><use xlink:href="#SvgjsG1312" transform="translate(367.5, 367.5) scale(2.1)" fill="rgba(0, 0, 0, 1)"></use><use xlink:href="#SvgjsG1313" transform="translate(367.5, 441) scale(2.1)" fill="rgba(0, 0, 0, 1)"></use><use xlink:href="#SvgjsG1312" transform="translate(367.5, 514.5) scale(2.1)" fill="rgba(0, 0, 0, 1)"></use><use xlink:href="#SvgjsG1313" transform="translate(367.5, 588) scale(2.1)" fill="rgba(0, 0, 0, 1)"></use><use xlink:href="#SvgjsG1312" transform="translate(367.5, 661.5) scale(2.1)" fill="rgba(0, 0, 0, 1)"></use><use xlink:href="#SvgjsG1312" transform="translate(441, 0) scale(2.1)" fill="rgba(0, 0, 0, 1)"></use><use xlink:href="#SvgjsG1313" transform="translate(441, 73.5) scale(2.1)" fill="rgba(0, 0, 0, 1)"></use><use xlink:href="#SvgjsG1312" transform="translate(441, 147) scale(2.1)" fill="rgba(0, 0, 0, 1)"></use><use xlink:href="#SvgjsG1313" transform="translate(441, 220.5) scale(2.1)" fill="rgba(0, 0, 0, 1)"></use><use xlink:href="#SvgjsG1312" transform="translate(441, 294) scale(2.1)" fill="rgba(0, 0, 0, 1)"></use><use xlink:href="#SvgjsG1313" transform="translate(441, 367.5) scale(2.1)" fill="rgba(0, 0, 0, 1)"></use><use xlink:href="#SvgjsG1312" transform="translate(441, 441) scale(2.1)" fill="rgba(0, 0, 0, 1)"></use><use xlink:href="#SvgjsG1313" transform="translate(441, 514.5) scale(2.1)" fill="rgba(0, 0, 0, 1)"></use><use xlink:href="#SvgjsG1312" transform="translate(441, 588) scale(2.1)" fill="rgba(0, 0, 0, 1)"></use><use xlink:href="#SvgjsG1313" transform="translate(441, 661.5) scale(2.1)" fill="rgba(0, 0, 0, 1)"></use><use xlink:href="#SvgjsG1313" transform="translate(514.5, 0) scale(2.1)" fill="rgba(0, 0, 0, 1)"></use><use xlink:href="#SvgjsG1312" transform="translate(514.5, 73.5) scale(2.1)" fill="rgba(0, 0, 0, 1)"></use><use xlink:href="#SvgjsG1313" transform="translate(514.5, 147) scale(2.1)" fill="rgba(0, 0, 0, 1)"></use><use xlink:href="#SvgjsG1312" transform="translate(514.5, 220.5) scale(2.1)" fill="rgba(0, 0, 0, 1)"></use><use xlink:href="#SvgjsG1313" transform="translate(514.5, 294) scale(2.1)" fill="rgba(0, 0, 0, 1)"></use><use xlink:href="#SvgjsG1312" transform="translate(514.5, 367.5) scale(2.1)" fill="rgba(0, 0, 0, 1)"></use><use xlink:href="#SvgjsG1313" transform="translate(514.5, 441) scale(2.1)" fill="rgba(0, 0, 0, 1)"></use><use xlink:href="#SvgjsG1312" transform="translate(514.5, 514.5) scale(2.1)" fill="rgba(0, 0, 0, 1)"></use><use xlink:href="#SvgjsG1313" transform="translate(514.5, 588) scale(2.1)" fill="rgba(0, 0, 0, 1)"></use><use xlink:href="#SvgjsG1312" transform="translate(514.5, 661.5) scale(2.1)" fill="rgba(0, 0, 0, 1)"></use><use xlink:href="#SvgjsG1312" transform="translate(588, 0) scale(2.1)" fill="rgba(0, 0, 0, 1)"></use><use xlink:href="#SvgjsG1313" transform="translate(588, 73.5) scale(2.1)" fill="rgba(0, 0, 0, 1)"></use><use xlink:href="#SvgjsG1312" transform="translate(588, 147) scale(2.1)" fill="rgba(0, 0, 0, 1)"></use><use xlink:href="#SvgjsG1313" transform="translate(588, 220.5) scale(2.1)" fill="rgba(0, 0, 0, 1)"></use><use xlink:href="#SvgjsG1312" transform="translate(588, 294) scale(2.1)" fill="rgba(0, 0, 0, 1)"></use><use xlink:href="#SvgjsG1313" transform="translate(588, 367.5) scale(2.1)" fill="rgba(0, 0, 0, 1)"></use><use xlink:href="#SvgjsG1312" transform="translate(588, 441) scale(2.1)" fill="rgba(0, 0, 0, 1)"></use><use xlink:href="#SvgjsG1313" transform="translate(588, 514.5) scale(2.1)" fill="rgba(0, 0, 0, 1)"></use><use xlink:href="#SvgjsG1312" transform="translate(588, 588) scale(2.1)" fill="rgba(0, 0, 0, 1)"></use><use xlink:href="#SvgjsG1313" transform="translate(588, 661.5) scale(2.1)" fill="rgba(0, 0, 0, 1)"></use><use xlink:href="#SvgjsG1313" transform="translate(661.5, 0) scale(2.1)" fill="rgba(0, 0, 0, 1)"></use><use xlink:href="#SvgjsG1312" transform="translate(661.5, 73.5) scale(2.1)" fill="rgba(0, 0, 0, 1)"></use><use xlink:href="#SvgjsG1313" transform="translate(661.5, 147) scale(2.1)" fill="rgba(0, 0, 0, 1)"></use><use xlink:href="#SvgjsG1312" transform="translate(661.5, 220.5) scale(2.1)" fill="rgba(0, 0, 0, 1)"></use><use xlink:href="#SvgjsG1313" transform="translate(661.5, 294) scale(2.1)" fill="rgba(0, 0, 0, 1)"></use><use xlink:href="#SvgjsG1312" transform="translate(661.5, 367.5) scale(2.1)" fill="rgba(0, 0, 0, 1)"></use><use xlink:href="#SvgjsG1313" transform="translate(661.5, 441) scale(2.1)" fill="rgba(0, 0, 0, 1)"></use><use xlink:href="#SvgjsG1312" transform="translate(661.5, 514.5) scale(2.1)" fill="rgba(0, 0, 0, 1)"></use><use xlink:href="#SvgjsG1313" transform="translate(661.5, 588) scale(2.1)" fill="rgba(0, 0, 0, 1)"></use><use xlink:href="#SvgjsG1312" transform="translate(661.5, 661.5) scale(2.1)" fill="rgba(0, 0, 0, 1)"></use></g></defs></svg>